# xmcd
#
# Track frame offsets:
#	150
#	10822
#	22405
#	31623
#	42931
#	56064
#	64531
#	77215
#	88788
#	97963
#	108650
#	120346
#	129439
#	138251
#	147949
#	158037
#	167145
#	176215
#	186820
#	194041
#	206308
#	216881
#	231303
#	242456
#	251602
#	261760
#	273774
#	284716
#	294959
#	306622
#	316441
#	326894
#
# Disc length: 4493 seconds
#
# Revision: 0
# Processed by: cddbd v1.5.2PL0 Copyright (c) Steve Scherf et al.
# Submitted via: audiograbber 1.83.01
#
DISCID=de118b20
DTITLE=Don Gibson - The Complete Recordings [1952-1962] [CD2]
DYEAR=2017
DGENRE=Country
TTITLE0=Stisfied (1958)
TTITLE1=(Prayer Is The Key To Heaven) Faith Unlocks The Door (1958)
TTITLE2=That Lonesome Valley (1958)
TTITLE3=Evening Prayer (1958)
TTITLE4=Known Only To Him (1958)
TTITLE5=Canaan's Land (1958)
TTITLE6=Where On One Stands Alone (1958)
TTITLE7=My God Is Real (1958)
TTITLE8=Waint For The Light To Shine (1958)
TTITLE9=Taller Than Trees (1958)
TTITLE10=Lord I'm Coming Home (1958)
TTITLE11=Climbing Up The Mountain (1958)
TTITLE12=Even Tho' (1959)
TTITLE13=It's My Way (1959)
TTITLE14=Midnight (1959)
TTITLE15=As Much (1959)
TTITLE16=Do You Think (1959)
TTITLE17=Didn't Work Out, Did It (1959)
TTITLE18=Won't Cha Come Back To Me (1959)
TTITLE19=I Wish It Had Been A Dream (1959)
TTITLE20=Ages And Ages Ago (1959)
TTITLE21=Almost (1959)
TTITLE22=It Has To Be (1959)
TTITLE23=Foggy River (1959)
TTITLE24=Sweet Dreams
TTITLE25=Give Myself A Part
TTITLE26=Look Who's Blue
TTITLE27=Who Cares For Me
TTITLE28=A Stranger To Me
TTITLE29=Lonesome Old House
TTITLE30=Don't Tell Me Your Troubles
TTITLE31=I'm Moving On
EXTD=
EXTT0=
EXTT1=
EXTT2=
EXTT3=
EXTT4=
EXTT5=
EXTT6=
EXTT7=
EXTT8=
EXTT9=
EXTT10=
EXTT11=
EXTT12=
EXTT13=
EXTT14=
EXTT15=
EXTT16=
EXTT17=
EXTT18=
EXTT19=
EXTT20=
EXTT21=
EXTT22=
EXTT23=
EXTT24=
EXTT25=
EXTT26=
EXTT27=
EXTT28=
EXTT29=
EXTT30=
EXTT31=
PLAYORDER=
